<svg>
       <symbol id='shopping-cart2' xmlns="http://www.w3.org/2000/svg" fill="none" viewBox="0 0 60 60" stroke-width="1.5" stroke="currentColor" >
  <path stroke-linecap="round" stroke-linejoin="round" d="M2.25 3h1.386c.51 0 .955.343 1.087.835l.383 1.437M7.5 14.25a3 3 0 0 0-3 3h15.75m-12.75-3h11.218c1.121-2.3 2.1-4.684 2.924-7.138a60.114 60.114 0 0 0-16.536-1.84M7.5 14.25 5.106 5.272M6 20.25a.75.75 0 1 1-1.5 0 .75.75 0 0 1 1.5 0Zm12.75 0a.75.75 0 1 1-1.5 0 .75.75 0 0 1 1.5 0Z" />
</symbol>

<symbol id='shopping-bag' xmlns="http://www.w3.org/2000/svg" fill="none" viewBox="0 0 24 24" stroke-width="1.5" stroke="currentColor" class="size-6">
  <path stroke-linecap="round" stroke-linejoin="round" d="M15.75 10.5V6a3.75 3.75 0 1 0-7.5 0v4.5m11.356-1.993 1.263 12c.07.665-.45 1.243-1.119 1.243H4.25a1.125 1.125 0 0 1-1.12-1.243l1.264-12A1.125 1.125 0 0 1 5.513 7.5h12.974c.576 0 1.059.435 1.119 1.007ZM8.625 10.5a.375.375 0 1 1-.75 0 .375.375 0 0 1 .75 0Zm7.5 0a.375.375 0 1 1-.75 0 .375.375 0 0 1 .75 0Z" />
</symbol>

   <symbol id='login' xmlns="http://www.w3.org/2000/svg" fill="none" viewBox="0 0 24 24" stroke-width="1.5" stroke="currentColor" class="size-6">
  <path stroke-linecap="round" stroke-linejoin="round" d="M15.75 9V5.25A2.25 2.25 0 0 0 13.5 3h-6a2.25 2.25 0 0 0-2.25 2.25v13.5A2.25 2.25 0 0 0 7.5 21h6a2.25 2.25 0 0 0 2.25-2.25V15m3 0 3-3m0 0-3-3m3 3H9" />
</symbol>

<symbol id='sun' xmlns="http://www.w3.org/2000/svg" fill="none" viewBox="0 0 24 24" stroke-width="1.5" stroke="currentColor" class="size-6">
  <path stroke-linecap="round" stroke-linejoin="round" d="M12 3v2.25m6.364.386-1.591 1.591M21 12h-2.25m-.386 6.364-1.591-1.591M12 18.75V21m-4.773-4.227-1.591 1.591M5.25 12H3m4.227-4.773L5.636 5.636M15.75 12a3.75 3.75 0 1 1-7.5 0 3.75 3.75 0 0 1 7.5 0Z" />
</symbol>

<symbol id='moon' xmlns="http://www.w3.org/2000/svg" fill="none" viewBox="0 0 24 24" stroke-width="1.5" stroke="currentColor" class="size-6">
  <path stroke-linecap="round" stroke-linejoin="round" d="M21.752 15.002A9.72 9.72 0 0 1 18 15.75c-5.385 0-9.75-4.365-9.75-9.75 0-1.33.266-2.597.748-3.752A9.753 9.753 0 0 0 3 11.25C3 16.635 7.365 21 12.75 21a9.753 9.753 0 0 0 9.002-5.998Z" />
</symbol>
<symbol id='bars-3' xmlns="http://www.w3.org/2000/svg" fill="none" viewBox="0 0 24 24" stroke-width="1.5" stroke="currentColor" class="size-6">
  <path stroke-linecap="round" stroke-linejoin="round" d="M3.75 6.75h16.5M3.75 12h16.5m-16.5 5.25h16.5" />
</symbol>

<symbol id='x-mark' xmlns="http://www.w3.org/2000/svg" width="20" height="20" viewBox="0 0 20 20" fill="none">
<path d="M6.28033 5.21967C5.98744 4.92678 5.51256 4.92678 5.21967 5.21967C4.92678 5.51256 4.92678 5.98744 5.21967 6.28033L8.93934 10L5.21967 13.7197C4.92678 14.0126 4.92678 14.4874 5.21967 14.7803C5.51256 15.0732 5.98744 15.0732 6.28033 14.7803L10 11.0607L13.7197 14.7803C14.0126 15.0732 14.4874 15.0732 14.7803 14.7803C15.0732 14.4874 15.0732 14.0126 14.7803 13.7197L11.0607 10L14.7803 6.28033C15.0732 5.98744 15.0732 5.51256 14.7803 5.21967C14.4874 4.92678 14.0126 4.92678 13.7197 5.21967L10 8.93934L6.28033 5.21967Z" fill="white"/>
</symbol>


<symbol id='home' xmlns="http://www.w3.org/2000/svg" viewBox="0 0 20 20" fill="none">
<path d="M1.875 10.0001L9.33709 2.53802C9.7032 2.1719 10.2968 2.1719 10.6629 2.53801L18.125 10.0001M3.75 8.1251V16.5626C3.75 17.0804 4.16973 17.5001 4.6875 17.5001H8.125V13.4376C8.125 12.9198 8.54473 12.5001 9.0625 12.5001H10.9375C11.4553 12.5001 11.875 12.9198 11.875 13.4376V17.5001H15.3125C15.8303 17.5001 16.25 17.0804 16.25 16.5626V8.1251M6.875 17.5001H13.75" stroke="#FDBA74" stroke-width="1.2" stroke-linecap="round" stroke-linejoin="round"/>
</symbol>
<symbol id='document' xmlns="http://www.w3.org/2000/svg" fill="none" viewBox="0 0 24 24" stroke-width="1.5" stroke="currentColor" class="size-6">
  <path stroke-linecap="round" stroke-linejoin="round" d="M19.5 14.25v-2.625a3.375 3.375 0 0 0-3.375-3.375h-1.5A1.125 1.125 0 0 1 13.5 7.125v-1.5a3.375 3.375 0 0 0-3.375-3.375H8.25m2.25 0H5.625c-.621 0-1.125.504-1.125 1.125v17.25c0 .621.504 1.125 1.125 1.125h12.75c.621 0 1.125-.504 1.125-1.125V11.25a9 9 0 0 0-9-9Z"  stroke="#FDBA74" />
</symbol>
<symbol id='building-office' xmlns="http://www.w3.org/2000/svg" fill="none" viewBox="0 0 24 24" stroke-width="1.5" stroke="currentColor" class="size-6">
  <path stroke-linecap="round" stroke-linejoin="round" d="M2.25 21h19.5m-18-18v18m10.5-18v18m6-13.5V21M6.75 6.75h.75m-.75 3h.75m-.75 3h.75m3-6h.75m-.75 3h.75m-.75 3h.75M6.75 21v-3.375c0-.621.504-1.125 1.125-1.125h2.25c.621 0 1.125.504 1.125 1.125V21M3 3h12m-.75 4.5H21m-3.75 3.75h.008v.008h-.008v-.008Zm0 3h.008v.008h-.008v-.008Zm0 3h.008v.008h-.008v-.008Z" stroke='#FDBA74' />
</symbol>
<symbol id='phone-arrow-down-left' xmlns="http://www.w3.org/2000/svg" fill="none" viewBox="0 0 24 24" stroke-width="1.5" stroke="currentColor" class="size-6">
  <path stroke-linecap="round" stroke-linejoin="round" d="M14.25 9.75v-4.5m0 4.5h4.5m-4.5 0 6-6m-3 18c-8.284 0-15-6.716-15-15V4.5A2.25 2.25 0 0 1 4.5 2.25h1.372c.516 0 .966.351 1.091.852l1.106 4.423c.11.44-.054.902-.417 1.173l-1.293.97a1.062 1.062 0 0 0-.38 1.21 12.035 12.035 0 0 0 7.143 7.143c.441.162.928-.004 1.21-.38l.97-1.293a1.125 1.125 0 0 1 1.173-.417l4.423 1.106c.5.125.852.575.852 1.091V19.5a2.25 2.25 0 0 1-2.25 2.25h-2.25Z" stroke="#FDBA74" stroke-width="1.2" />
</symbol>
<symbol id ='document-magnifying-glass' xmlns="http://www.w3.org/2000/svg" fill="none" viewBox="0 0 24 24" stroke-width="1.5" stroke="currentColor" class="size-6">
  <path stroke-linecap="round" stroke-linejoin="round" d="M19.5 14.25v-2.625a3.375 3.375 0 0 0-3.375-3.375h-1.5A1.125 1.125 0 0 1 13.5 7.125v-1.5a3.375 3.375 0 0 0-3.375-3.375H8.25m5.231 13.481L15 17.25m-4.5-15H5.625c-.621 0-1.125.504-1.125 1.125v16.5c0 .621.504 1.125 1.125 1.125h12.75c.621 0 1.125-.504 1.125-1.125V11.25a9 9 0 0 0-9-9Zm3.75 11.625a2.625 2.625 0 1 1-5.25 0 2.625 2.625 0 0 1 5.25 0Z" stroke="#FDBA74" stroke-width="1.2" />
</symbol>
<symbol id='bell-alert' xmlns="http://www.w3.org/2000/svg" fill="none" viewBox="0 0 24 24" stroke-width="1.5" stroke="currentColor" class="size-6">
  <path stroke-linecap="round" stroke-linejoin="round" d="M14.857 17.082a23.848 23.848 0 0 0 5.454-1.31A8.967 8.967 0 0 1 18 9.75V9A6 6 0 0 0 6 9v.75a8.967 8.967 0 0 1-2.312 6.022c1.733.64 3.56 1.085 5.455 1.31m5.714 0a24.255 24.255 0 0 1-5.714 0m5.714 0a3 3 0 1 1-5.714 0M3.124 7.5A8.969 8.969 0 0 1 5.292 3m13.416 0a8.969 8.969 0 0 1 2.168 4.5" stroke="#FDBA74" stroke-width="1.2" />
</symbol>
















</svg>